<svg width="96" height="96" viewBox="0 0 480 480" fill="none" xmlns="http://www.w3.org/2000/svg">
<path d="M13 466V9H121.607C143.247 9 161.095 14.5042 175.152 25.5127C189.208 36.3724 199.674 51.0255 206.551 69.4722C213.427 87.77 216.865 108.076 216.865 130.391C216.865 150.027 214.489 166.243 209.736 179.036C205.084 191.83 198.916 201.946 191.23 209.384C183.646 216.822 175.405 222.326 166.506 225.896V230.359C176.011 231.252 185.567 236.161 195.174 245.087C204.781 254.013 212.82 266.806 219.292 283.468C225.764 300.129 229 320.51 229 344.609C229 367.519 225.461 388.123 218.382 406.42C211.303 424.718 200.129 439.223 184.86 449.934C169.59 460.645 149.719 466 125.247 466H13ZM50.618 416.908H125.247C149.82 416.908 167.264 409.916 177.579 395.933C187.994 381.8 193.202 364.692 193.202 344.609C193.202 329.138 190.522 314.857 185.163 301.766C179.803 288.526 172.169 277.964 162.258 270.079C152.348 262.046 140.618 258.029 127.067 258.029H50.618V416.908ZM50.618 209.83H120.393C131.719 209.83 141.933 206.557 151.034 200.012C160.236 193.466 167.517 184.243 172.876 172.342C178.337 160.441 181.067 146.457 181.067 130.391C181.067 110.308 176.315 93.2743 166.809 79.2905C157.303 65.158 142.236 58.0918 121.607 58.0918H50.618V209.83Z" fill="#FFF945"/>
<path d="M331.577 466H240V9H335.634C364.421 9 389.054 18.1489 409.534 36.4468C430.013 54.5959 445.71 80.7037 456.626 114.77C467.542 148.688 473 189.301 473 236.607C473 284.212 467.494 325.196 456.481 359.56C445.469 393.776 429.433 420.107 408.374 438.553C387.316 456.851 361.716 466 331.577 466ZM275.935 416.908H329.259C353.795 416.908 374.13 409.619 390.262 395.04C406.394 380.461 418.421 359.709 426.342 332.783C434.263 305.857 438.224 273.798 438.224 236.607C438.224 199.714 434.312 167.953 426.487 141.325C418.662 114.547 406.974 94.0181 391.421 79.7368C375.868 65.3068 356.5 58.0918 333.316 58.0918H275.935V416.908Z" fill="#E6E26C"/>
</svg>
